<svg xmlns="http://www.w3.org/2000/svg">
  <symbol id="i-plus" viewBox="0 0 24 24" fill="none" stroke="currentColor" stroke-width="2" stroke-linecap="round" stroke-linejoin="round">
    <path d="M12 5v14"/>
    <path d="M5 12h14"/>
  </symbol>
  <symbol id="i-minus" viewBox="0 0 24 24" fill="none" stroke="currentColor" stroke-width="2" stroke-linecap="round" stroke-linejoin="round">
    <path d="M5 12h14"/>
  </symbol>
  <symbol id="i-download" viewBox="0 0 24 24" fill="none" stroke="currentColor" stroke-width="2" stroke-linecap="round" stroke-linejoin="round">
    <path d="M12 3v12"/>
    <path d="m7 10 5 5 5-5"/>
    <path d="M21 21H3"/>
  </symbol>
  <symbol id="i-search" viewBox="0 0 24 24" fill="none" stroke="currentColor" stroke-width="2" stroke-linecap="round" stroke-linejoin="round">
    <circle cx="11" cy="11" r="7"/>
    <path d="m21 21-4.3-4.3"/>
  </symbol>
  <symbol id="i-search-plus" viewBox="0 0 24 24" fill="none" stroke="currentColor" stroke-width="2" stroke-linecap="round" stroke-linejoin="round">
    <circle cx="11" cy="11" r="7"/>
    <path d="m21 21-4.3-4.3"/>
    <path d="M11 8v6"/>
    <path d="M8 11h6"/>
  </symbol>
  <symbol id="i-crop" viewBox="0 0 24 24" fill="none" stroke="currentColor" stroke-width="2" stroke-linecap="round" stroke-linejoin="round">
    <path d="M6 2v14a2 2 0 0 0 2 2h14"/>
    <path d="M18 22V8a2 2 0 0 0-2-2H2"/>
  </symbol>
  <symbol id="i-help-circle" viewBox="0 0 24 24" fill="none" stroke="currentColor" stroke-width="2" stroke-linecap="round" stroke-linejoin="round">
    <circle cx="12" cy="12" r="10"/>
    <path d="M9.1 9a3 3 0 1 1 5.8 1c0 2-3 3-3 3"/>
    <path d="M12 17h.01"/>
  </symbol>
  <symbol id="i-scissors" viewBox="0 0 24 24" fill="none" stroke="currentColor" stroke-width="2" stroke-linecap="round" stroke-linejoin="round">
    <circle cx="6" cy="6" r="3"/>
    <circle cx="6" cy="18" r="3"/>
    <path d="M20 4 8.1 15.9"/>
    <path d="m14.5 14.5 5.5 5.5"/>
    <path d="M8.1 8.1 12 12"/>
  </symbol>
  <symbol id="i-trash-2" viewBox="0 0 24 24" fill="none" stroke="currentColor" stroke-width="2" stroke-linecap="round" stroke-linejoin="round">
    <path d="M3 6h18"/>
    <path d="M8 6V4a1 1 0 0 1 1-1h6a1 1 0 0 1 1 1v2"/>
    <path d="M19 6v14a2 2 0 0 1-2 2H7a2 2 0 0 1-2-2V6"/>
    <path d="M10 11v6"/>
    <path d="M14 11v6"/>
  </symbol>
  <symbol id="i-undo-2" viewBox="0 0 24 24" fill="none" stroke="currentColor" stroke-width="2" stroke-linecap="round" stroke-linejoin="round">
    <path d="m9 14-5-5 5-5"/>
    <path d="M4 9h11a5 5 0 1 1 0 10h-1"/>
  </symbol>
  <symbol id="i-redo-2" viewBox="0 0 24 24" fill="none" stroke="currentColor" stroke-width="2" stroke-linecap="round" stroke-linejoin="round">
    <path d="m15 14 5-5-5-5"/>
    <path d="M20 9H9a5 5 0 1 0 0 10h1"/>
  </symbol>
  <symbol id="i-rotate-ccw" viewBox="0 0 24 24" fill="none" stroke="currentColor" stroke-width="2" stroke-linecap="round" stroke-linejoin="round">
    <polyline points="1 4 1 10 7 10"></polyline>
    <path d="M3.51 15a9 9 0 1 0 2.13-9.36L1 10"></path>
  </symbol>
  <symbol id="i-reset-2" viewBox="0 0 24 24" fill="none" stroke="currentColor" stroke-width="2.25" stroke-linecap="round" stroke-linejoin="round">
    <path d="M5 5v4h4"/>
    <path d="M5 9a8 8 0 1 0 2.34-5.66L5 5"/>
  </symbol>
  <symbol id="i-reset-3" viewBox="0 0 24 24" fill="none" stroke="currentColor" stroke-width="2.25" stroke-linecap="round" stroke-linejoin="round">
    <path d="M8 7H5v3"/>
    <path d="M5 10a7 7 0 1 0 2.2-5"/>
  </symbol>
  <symbol id="i-chevron-left" viewBox="0 0 24 24" fill="none" stroke="currentColor" stroke-width="2" stroke-linecap="round" stroke-linejoin="round">
    <path d="m15 18-6-6 6-6"/>
  </symbol>
  <symbol id="i-chevron-right" viewBox="0 0 24 24" fill="none" stroke="currentColor" stroke-width="2" stroke-linecap="round" stroke-linejoin="round">
    <path d="m9 18 6-6-6-6"/>
  </symbol>
</svg>
